<svg xmlns="http://www.w3.org/2000/svg" viewBox="0 0 100 100">
  <circle cx="50" cy="50" r="50" fill="#e91e63"/>
  <circle cx="50" cy="45" r="25" fill="#ffecd2"/>
  <circle cx="40" cy="42" r="4" fill="#333"/>
  <circle cx="60" cy="42" r="4" fill="#333"/>
  <circle cx="41" cy="41" r="1.5" fill="#fff"/>
  <circle cx="61" cy="41" r="1.5" fill="#fff"/>
  <path d="M46 53 Q50 56 54 53" stroke="#333" stroke-width="2" fill="none" stroke-linecap="round"/>
  <ellipse cx="35" cy="48" rx="5" ry="3" fill="#ffb6b6" opacity="0.6"/>
  <ellipse cx="65" cy="48" rx="5" ry="3" fill="#ffb6b6" opacity="0.6"/>
  <path d="M22 38 Q28 10 50 15 Q72 10 78 38 Q75 22 50 25 Q25 22 22 38 Z" fill="#6c5ce7"/>
  <path d="M30 30 Q40 22 50 25 Q60 22 70 30" stroke="#a29bfe" stroke-width="3" fill="none" stroke-linecap="round"/>
  <circle cx="25" cy="30" r="4" fill="#fff" opacity="0.5"/>
  <circle cx="75" cy="30" r="4" fill="#fff" opacity="0.5"/>
</svg>
