<svg xmlns="http://www.w3.org/2000/svg" viewBox="0 0 100 100">
  <circle cx="50" cy="50" r="50" fill="#ffc107"/>
  <circle cx="50" cy="45" r="25" fill="#ffecd2"/>
  <circle cx="40" cy="42" r="4" fill="#333"/>
  <circle cx="60" cy="42" r="4" fill="#333"/>
  <circle cx="41" cy="41" r="1.5" fill="#fff"/>
  <circle cx="61" cy="41" r="1.5" fill="#fff"/>
  <path d="M42 52 Q50 60 58 52" stroke="#333" stroke-width="2" fill="none" stroke-linecap="round"/>
  <ellipse cx="35" cy="48" rx="5" ry="3" fill="#ffb6b6" opacity="0.6"/>
  <ellipse cx="65" cy="48" rx="5" ry="3" fill="#ffb6b6" opacity="0.6"/>
  <path d="M28 30 Q35 8 50 15 Q65 8 72 30 L68 38 Q62 18 50 22 Q38 18 32 38 Z" fill="#fdcb6e"/>
  <circle cx="50" cy="12" r="5" fill="#fdcb6e"/>
  <path d="M33 36 L28 32" stroke="#fdcb6e" stroke-width="4" stroke-linecap="round"/>
  <path d="M67 36 L72 32" stroke="#fdcb6e" stroke-width="4" stroke-linecap="round"/>
</svg>
